PathFileType	4	(X/Y/Z)	C:/Users/opensim2020/Desktop/walking_exp_matlab/subject01_walking13_straight_04.trc																																																																																																																												
DataRate	CameraRate	NumFrames	NumMarkers	Units	OrigDataRate	OrigDataStartFrame	OrigNumFrames																																																																																																																								
100	100	7	42	mm	100	2159	135																																																																																																																								
Frame#	Time	LFHD			RFHD			LBHD			RBHD			C7			T10			CLAV			STRN			RBAK			LSHO			LUPA			LELB			LFRM			LWRA			LWRB			LFIN			RSHO			RUPA			RELB			RFRM			RWRA			RWRB			RFIN			LASI			RASI			LPSI			RPSI			LTHI			LKNE			LTIB			LANK			LHEE			LTOE			RTHI			RKNE			RTIB			RANK			RHEE			RTOE			*39			*40			*41		
		X1	Y1	Z1	X2	Y2	Z2	X3	Y3	Z3	X4	Y4	Z4	X5	Y5	Z5	X6	Y6	Z6	X7	Y7	Z7	X8	Y8	Z8	X9	Y9	Z9	X10	Y10	Z10	X11	Y11	Z11	X12	Y12	Z12	X13	Y13	Z13	X14	Y14	Z14	X15	Y15	Z15	X16	Y16	Z16	X17	Y17	Z17	X18	Y18	Z18	X19	Y19	Z19	X20	Y20	Z20	X21	Y21	Z21	X22	Y22	Z22	X23	Y23	Z23	X24	Y24	Z24	X25	Y25	Z25	X26	Y26	Z26	X27	Y27	Z27	X28	Y28	Z28	X29	Y29	Z29	X30	Y30	Z30	X31	Y31	Z31	X32	Y32	Z32	X33	Y33	Z33	X34	Y34	Z34	X35	Y35	Z35	X36	Y36	Z36	X37	Y37	Z37	X38	Y38	Z38	X39	Y39	Z39	X40	Y40	Z40	X41	Y41	Z41	X42	Y42	Z42
																																																																																																																															
51	0.5	-337.1315	1654.39832	-1547.4939	-324.35196	1662.13623	-1435.26367	-455.87006	1617.40442	-1539.47961	-445.28159	1624.35449	-1419.50806	-505.07477	1424.55396	-1491.97339	-548.75183	1132.0061	-1470.56238	-362.64716	1354.10889	-1483.4729	-322.41135	1198.97864	-1487.62842	-565.70331	1230.64478	-1411.35291	-417.63788	1383.54126	-1646.20105	-423.8407	1208.6106	-1742.82483	-400.86487	1057.93176	-1766.54504	-290.56476	1012.28198	-1778.229	-156.17079	1003.85547	-1745.49756	-182.78926	957.28528	-1771.26672	-100.94632	956.08258	-1781.40686	-431.74585	1384.86182	-1334.56848	-531.85168	1205.17139	-1235.33167	-557.39087	1086.44714	-1222.45959	-568.69287	970.03223	-1183.70654	-529.38086	833.50983	-1191.86487	-572.64807	849.64832	-1155.67859	-554.78766	769.44537	-1143.45508	-386.69473	923.87079	-1588.4043	-360.73996	927.51013	-1371.2854	-565.23083	945.1178	-1509.06604	-543.78937	938.37964	-1366.31201	-500.34421	602.21082	-1625.55603	-547.38074	473.14706	-1607.68433	-647.55554	310.49707	-1605.10156	-725.53552	105.49892	-1546.6438	-771.12939	90.68239	-1490.40796	-593.23651	34.43603	-1559.94458	-331.54651	601.92499	-1300.92114	-261.97537	464.70602	-1337.79602	-255.31197	291.53342	-1325.16028	-200.62299	87.73953	-1369.90039	-231.27087	34.06324	-1421.44397	-57.40639	95.61694	-1370.79175	-333.65765	1695.65063	-1458.88037	-1973.18005	1023.47815	3101.86328	-2012.48218	1022.06696	3140.72656
52	0.51	-324.28329	1653.22461	-1545.96094	-311.39948	1660.94287	-1433.83936	-442.95993	1616.10864	-1538.02393	-432.27005	1622.93945	-1417.99695	-491.98514	1423.11475	-1490.44006	-534.98621	1130.43042	-1469.50867	-349.32437	1352.94458	-1482.30176	-308.78961	1197.91382	-1487.14954	-552.15063	1228.92725	-1410.11145	-404.80182	1382.771	-1644.8623	-410.25699	1208.35498	-1742.18274	-386.52939	1058.0271	-1766.91577	-275.42441	1014.06049	-1778.37939	-141.14224	1007.83313	-1745.28027	-166.81992	960.91711	-1771.31226	-85.05927	961.38928	-1781.30066	-418.02002	1383.34644	-1333.30566	-519.03094	1203.7865	-1234.60132	-545.12354	1085.17041	-1221.9563	-557.15601	968.81268	-1183.23718	-518.4574	832.19373	-1191.04163	-561.94244	848.54095	-1155.30457	-544.72638	768.16095	-1142.73999	-373.63934	922.76642	-1589.34753	-345.88101	925.55127	-1372.27649	-551.36017	944.60797	-1507.95752	-528.51581	937.18848	-1365.15576	-490.69501	601.9198	-1626.55664	-538.82782	473.12964	-1608.43628	-641.83136	312.33698	-1605.7428	-723.77692	108.77366	-1547.56238	-769.42529	95.14187	-1491.2207	-592.87402	34.57759	-1560.06042	-319.79233	599.66272	-1299.79004	-248.42932	464.00235	-1338.42163	-236.7701	291.21915	-1325.25891	-177.47391	88.72948	-1369.97534	-207.38063	34.02685	-1420.90662	-33.91791	99.13222	-1372.63574	-320.8381	1694.37146	-1457.45117	-1973.17419	1023.43365	3101.8186	-2012.599	1022.11761	3140.61084
53	0.52	-311.38397	1652.14661	-1544.47046	-298.4408	1659.76221	-1432.26404	-430.00278	1614.87585	-1536.38428	-419.25723	1621.63855	-1416.40503	-478.79614	1421.72998	-1488.72437	-521.06445	1128.88062	-1468.45923	-335.87686	1351.87061	-1481.0824	-295.03839	1196.8877	-1486.48962	-538.53088	1227.36755	-1408.67407	-391.89645	1382.07837	-1643.45374	-396.85541	1208.04346	-1741.33276	-372.31232	1058.12976	-1767.20813	-260.70718	1015.52753	-1778.38416	-126.51894	1011.17352	-1744.91736	-151.44333	964.05231	-1771.28491	-69.62997	965.80829	-1780.99731	-404.3725	1381.80286	-1331.67871	-506.09143	1202.41748	-1233.70581	-532.55347	1083.88428	-1221.17712	-545.20447	967.5235	-1182.78357	-506.9892	830.72424	-1190.28308	-550.66681	847.31555	-1155.09705	-533.8454	766.88934	-1142.20007	-360.30688	921.66736	-1590.08533	-330.96921	923.55231	-1373.22632	-537.3219	943.95911	-1506.96399	-513.59125	936.1593	-1364.19434	-480.18527	601.53534	-1627.5498	-529.31866	473.07382	-1609.28833	-635.69965	314.25244	-1606.47351	-721.37946	112.11509	-1548.30811	-767.38806	100.18964	-1492.24146	-593.33636	34.82539	-1560.70886	-306.39273	598.13922	-1299.54309	-234.76927	463.56851	-1338.9386	-219.63354	290.67355	-1325.63135	-157.68155	88.78246	-1370.29639	-187.17282	33.85422	-1420.87659	-13.73367	100.60133	-1374.92664	-308.07898	1693.21179	-1455.78308	-1973.07568	1023.33069	3102.00146	-2012.54163	1022.17059	3140.65747
54	0.53	-298.46051	1651.11206	-1542.75781	-285.40164	1658.64709	-1430.57202	-417.02597	1613.66553	-1534.6532	-406.18033	1620.3479	-1414.62341	-465.54813	1420.38831	-1486.91553	-507.01279	1127.35742	-1467.3927	-322.34497	1350.92468	-1479.71997	-281.25879	1195.96887	-1485.69202	-524.8598	1225.88245	-1407.12378	-378.98737	1381.45459	-1641.91382	-383.60739	1207.74963	-1740.42896	-358.49982	1058.26221	-1767.2749	-246.42874	1016.79987	-1778.26367	-112.31522	1013.95532	-1744.48254	-136.32866	966.1311	-1770.66162	-54.76268	969.51013	-1780.62183	-390.58078	1380.36902	-1330.13708	-492.81165	1200.92969	-1232.76489	-519.80103	1082.35132	-1220.76343	-532.97992	966.15857	-1182.40625	-494.89359	829.29852	-1189.56995	-539.06012	845.86694	-1154.94287	-522.33459	765.47705	-1141.78027	-346.51926	920.59534	-1590.50415	-315.97821	921.914	-1374.0365	-523.03033	943.08649	-1506.11072	-498.66611	935.13129	-1363.39136	-468.89163	601.04401	-1628.43066	-519.45758	473.13147	-1610.10925	-628.84918	316.38956	-1607.4021	-718.94794	116.08997	-1549.42261	-764.77063	105.38548	-1493.07324	-593.15045	34.85558	-1560.89355	-291.12769	597.73883	-1300.55481	-220.6088	462.64133	-1339.31079	-204.0405	289.77902	-1326.17505	-141.10004	88.26182	-1370.80066	-170.74005	32.99153	-1421.01672	3.2391	99.97241	-1377.41309	-295.12543	1692.09607	-1454.05652	-1973.20789	1023.4137	3101.87744	-2012.56201	1022.13336	3140.75879
55	0.54	-285.53214	1650.146	-1541.00049	-272.3978	1657.60242	-1428.8429	-403.99283	1612.49951	-1532.65784	-393.07162	1619.15808	-1412.69788	-452.1532	1419.02649	-1484.92297	-492.86557	1125.87183	-1466.34363	-308.76089	1349.98364	-1478.23535	-267.31247	1195.16064	-1484.76318	-511.03821	1224.40381	-1405.58557	-365.85107	1380.81787	-1640.24817	-370.57806	1207.50073	-1739.37817	-344.93002	1058.2832	-1767.09998	-232.52716	1017.79791	-1777.99817	-98.53107	1016.04785	-1743.85608	-121.98694	968.21765	-1770.36768	-40.51483	972.47717	-1780.17993	-376.79413	1378.91431	-1328.27161	-479.33057	1199.44116	-1231.55933	-506.88196	1080.9104	-1220.15405	-520.35419	964.63538	-1181.98169	-482.19327	827.86212	-1188.922	-527.29974	844.52704	-1155.08899	-509.99686	764.02026	-1141.32239	-332.26971	919.54364	-1590.64111	-300.88284	920.56689	-1374.58411	-508.56058	941.92224	-1505.40869	-483.67712	933.97668	-1362.81555	-456.9147	600.47272	-1629.26709	-508.483	472.96951	-1611.05554	-621.43384	318.53107	-1608.29736	-715.77008	119.85736	-1550.4071	-761.86707	111.0349	-1494.37817	-592.72473	34.86699	-1561.01038	-274.54761	597.61719	-1302.10754	-206.12212	461.42111	-1339.49805	-189.92984	288.43036	-1326.8717	-127.66612	86.2514	-1371.63171	-157.87334	31.25758	-1421.55945	16.94721	97.57996	-1379.79712	-282.17007	1691.02417	-1452.28088	-1972.96252	1023.94568	3102.21655	-2012.45874	1022.00946	3140.83008
56	0.55	-272.61877	1649.14636	-1539.06787	-259.30502	1656.573	-1426.91443	-391.017	1611.38184	-1530.65601	-379.86957	1617.91345	-1410.62573	-438.60934	1417.69263	-1482.85535	-478.55191	1124.427	-1465.30591	-294.96732	1348.99707	-1476.48425	-253.15392	1194.41907	-1483.73694	-497.04214	1222.8739	-1404.14929	-352.60205	1380.20166	-1638.44031	-357.64447	1207.24976	-1738.15369	-331.6875	1058.26172	-1766.73743	-219.00623	1018.52936	-1777.55408	-85.23097	1017.57104	-1743.16919	-108.25583	969.7157	-1769.96716	-26.80193	974.63647	-1779.63513	-362.93225	1377.47778	-1326.57288	-465.72449	1197.91113	-1230.35889	-493.79312	1079.3656	-1219.58289	-507.41748	963.01093	-1181.63904	-468.98624	826.36401	-1188.37817	-514.0459	842.80536	-1154.62073	-497.12061	762.49658	-1140.79895	-317.6723	918.48889	-1590.63647	-285.44406	919.71924	-1374.87842	-493.8855	940.59509	-1504.88025	-468.89948	932.80627	-1362.5177	-444.30756	599.99188	-1629.87341	-496.77921	472.68655	-1612.02954	-613.12891	320.74533	-1609.44409	-712.57166	124.52544	-1552.07471	-758.47278	117.22795	-1495.87634	-592.24286	34.5916	-1560.97534	-257.14511	597.64734	-1303.96362	-191.26256	459.82709	-1339.95178	-177.16339	286.35971	-1327.69897	-117.43704	83.63418	-1372.63269	-148.24902	28.90782	-1422.3418	27.47776	93.65845	-1382.28503	-269.09692	1690.01794	-1450.36743	-1973.18579	1023.40497	3101.91968	-2012.49463	1021.93427	3140.61279
57	0.56	-259.69708	1648.22986	-1537.09009	-246.1707	1655.59155	-1424.95947	-378.04855	1610.24524	-1528.44714	-366.67856	1616.77087	-1408.52307	-425.06259	1416.39038	-1480.7876	-464.07327	1122.94788	-1464.34082	-281.16537	1348.01709	-1474.72278	-238.9623	1193.73987	-1482.6283	-482.86786	1221.24854	-1402.76538	-339.17825	1379.58594	-1636.46313	-344.8688	1206.98169	-1736.7218	-318.79742	1058.25098	-1766.19739	-205.97986	1019.01868	-1776.98267	-72.24878	1018.46979	-1742.35925	-95.07591	970.62115	-1769.39868	-13.67035	975.97711	-1779.03479	-349.14359	1376.14355	-1324.63879	-451.89355	1196.3385	-1228.9978	-480.42206	1077.80847	-1218.84497	-494.12497	961.41168	-1181.28162	-455.26544	824.82416	-1187.91455	-500.73166	841.1571	-1154.74402	-483.51498	761.03223	-1140.59241	-302.71548	917.36035	-1590.49316	-269.88068	918.96478	-1374.84302	-478.95255	939.20087	-1504.49182	-453.8508	931.66132	-1362.53333	-431.13278	599.54797	-1630.66675	-484.28543	472.34491	-1613.21667	-604.02557	322.90176	-1610.68921	-708.47693	128.9402	-1553.69958	-754.46381	123.68675	-1497.5542	-591.97498	34.60634	-1561.20947	-239.41989	597.75464	-1305.93225	-176.31363	457.86301	-1340.38818	-165.57359	283.74835	-1328.71045	-109.38165	80.18659	-1374.03918	-141.99518	27.202	-1423.40112	35.21087	88.32002	-1384.14478	-256.06912	1689.09851	-1448.38562	-1973.10608	1023.59863	3101.84985	-2012.44067	1021.94409	3140.60889
